<svg xmlns="http://www.w3.org/2000/svg" viewBox="0 0 268.08 55.85">
    <defs>
        <style>.cls-1{font-size:23.11px;fill:#fff;font-family:Unbounded-Bold,
            Unbounded;font-weight:700;letter-spacing:0.03em;}.cls-2{letter-spacing:0em;}.cls-3{letter-spacing:0.03em;}.cls-4{letter-spacing:0em;}.cls-5{letter-spacing:0em;}.cls-6{letter-spacing:0em;}.cls-7{letter-spacing:0em;}.cls-8{letter-spacing:0.02em;}.cls-9{letter-spacing:-0.01em;}.cls-10{letter-spacing:-0.01em;}.cls-11{fill:#094790;}.cls-11,.cls-12,.cls-13,.cls-14{fill-rule:evenodd;}.cls-12{fill:#e2281b;}.cls-13{fill:#f3f9fe;}.cls-14{fill:#4b88c7;}
        </style>
    </defs>
    <g id="Слой_2" data-name="Слой 2">
        <g id="Слой_10" data-name="Слой 10">
            <text class="cls-1" transform="translate(68.27 26.03)">М
                <tspan class="cls-2" x="29.18" y="0">О</tspan>
                <tspan class="cls-3" x="51.48" y="0">Л</tspan>
                <tspan class="cls-4" x="75.21" y="0">О</tspan>
                <tspan x="97.56" y="0">ДЁЖ</tspan>
                <tspan class="cls-5" x="174.71" y="0">Ь</tspan>
                <tspan class="cls-3" x="193.45" y="0"></tspan>
                <tspan x="0" y="23.21">РО</tspan>
                <tspan class="cls-6" x="42.35" y="23.21">С</tspan>
                <tspan class="cls-7" x="63.91" y="23.21">Т</tspan>
                <tspan class="cls-8" x="82.72" y="23.21">О</tspan>
                <tspan class="cls-9" x="105.44" y="23.21">В</tspan>
                <tspan class="cls-10" x="125.61" y="23.21">А</tspan>
            </text>
            <path class="cls-11"
                  d="M27.81,29.85v-2H25.26l-2.45,0c-.47,3.32-.74,4.22-2.46,6.34-2.91,3.56-9.06,4.23-12.85,1.2-1.32-1-.73-1.57-2.89-1.54-1.41,0-3.16-.1-4.52.05.82,2.57,3.66,5.2,5.69,6.43a14.54,14.54,0,0,0,21.39-8.11,15.77,15.77,0,0,1,.64-2.42Z"/>
            <path class="cls-12"
                  d="M27.81,27.7v2l0,3.11c4.94.39,8.93,3.23,9.45,8.48a9.5,9.5,0,0,1-2,6.89c-1,1.19-1.48.81-1.45,2.89,0,1.44.07,3.09,0,4.52,2-1.13,3.22-1.47,5.08-3.79,4.55-5.67,4.67-13.6.1-18.84l-2.34-2.23c-3.37-2.56-5.61-2.34-6.35-2.95l2.55-.05-5,0,0-1.68h-.1Z"/>
            <path class="cls-13"
                  d="M25.26,27.86h2.55l0-1.68V22.83C18,22,16.46,12.5,20.3,7.58a8.85,8.85,0,0,1,1.09-1.11c.65-.6.46-.58.45-1.69,0-1.52,0-3,0-4.56-1.77.16-5.19,3.49-6.41,5.53a14.44,14.44,0,0,0,2,17.73c2.66,2.65,3.9,3.06,7.1,4.06Z"/>
            <path class="cls-14"
                  d="M27.83,26.16l0,1.69,4.95,0c.4-3.29.91-4.4,2.51-6.41a9.5,9.5,0,0,1,5.85-2.95A9.33,9.33,0,0,1,48,20.38c1.8,1.35.68,1.55,2.91,1.53a41.79,41.79,0,0,0,4.49-.06c-.64-2.41-3.78-5.29-5.66-6.42a14.54,14.54,0,0,0-22,10.73Z"/>
            <path class="cls-14"
                  d="M55.58,7v-6c-.48.25-1.08.86-1.71,1.25a10.17,10.17,0,0,1-2.25,1A9.84,9.84,0,0,1,45.88,3c-2.13-.74-2.57-1.53-3.83-2.62-.74-.63-4.83-.29-6-.26.22,1.45,2.11,3.4,2.9,4.22C43.41,8.92,49.77,9.68,55.58,7Z"/>
            <path class="cls-13"
                  d="M.07,19.7c2.68-.62,6.13-4.59,7.33-7.55a15.07,15.07,0,0,0,1-6.37C8.38,4.31,7.61,1.1,6.81.12l-6,0C1,.53,1.54,1,2.09,1.86A9.39,9.39,0,0,1,3,9.73,9.16,9.16,0,0,1,.38,13.6c-.56.61-.34,5-.31,6.1Z"/>
            <path class="cls-12"
                  d="M48.85,55.66l5.94,0c-.34-.75-1.17-1.27-1.91-3.1a9.28,9.28,0,0,1,2.7-10.68l0-5.86c-3.1,1.11-6,4.39-7.3,7.49-1.38,3.31-1.65,9.34.54,12.11Z"/>
            <path class="cls-11"
                  d="M.06,48.86v6c1.05-.5,4.17-4,9.59-2.11,3.92,1.35,3,2.85,4.95,2.93l5,0c-.79-3-4.75-6.13-7.43-7.3-4.26-1.88-8.25-1.23-12.13.47Z"/>
            <path class="cls-13" d="M24.18,9.52c-6.37,1.64-3.56,10.5,2.15,9S30,8,24.18,9.52Z"/>
            <path class="cls-11" d="M12.66,26.15c-6.15,1.9-3.1,10.63,2.67,8.83s3.17-10.64-2.67-8.83Z"/>
            <path class="cls-14"
                  d="M40.27,20.9a4.36,4.36,0,0,0-2.58,2c-2,3.44,1.37,8.23,5.53,6.71,5.29-1.92,3.41-9.46-2-9l-.47.06c-.9.22,0,0-.46.19Z"/>
            <path class="cls-12"
                  d="M29.5,36.57C24,37.61,25.36,46,31.13,45A4.29,4.29,0,0,0,34.48,40a4.24,4.24,0,0,0-5-3.38Z"/>
        </g>
    </g>
</svg>