<svg xmlns="http://www.w3.org/2000/svg" viewBox="0 0 720.79 587.66"><defs><style>.cls-1,.cls-4{fill:#f2f9ff;}.cls-2,.cls-7{fill:#024692;}.cls-2,.cls-3,.cls-4,.cls-5{fill-rule:evenodd;}.cls-3,.cls-8{fill:#e22616;}.cls-5,.cls-6{fill:#2d91f5;}</style></defs><g id="Слой_2" data-name="Слой 2"><g id="PRINT"><path class="cls-1" d="M95.35,433.62v65.25H78.21V440.06l3.83.44L56.81,498.87H38.54l-25.32-58.2,3.92-.43v58.63H0V433.62H27.84l23.4,56h-7l23.23-56Z"/><path class="cls-1" d="M145.72,500.27A45.71,45.71,0,0,1,125.41,496,31.65,31.65,0,0,1,107,466.25a32.73,32.73,0,0,1,4.83-17.84,32.4,32.4,0,0,1,13.57-11.91,45.71,45.71,0,0,1,20.31-4.27,45.63,45.63,0,0,1,20.36,4.27,32.93,32.93,0,0,1,0,59.5A45.63,45.63,0,0,1,145.72,500.27Zm0-16.1a25.53,25.53,0,0,0,11-2.17,16.31,16.31,0,0,0,7.09-6.18,19.7,19.7,0,0,0,0-19.14,16.31,16.31,0,0,0-7.09-6.18,25.53,25.53,0,0,0-11-2.17,25.25,25.25,0,0,0-10.87,2.17,16.48,16.48,0,0,0-7.13,6.18,19.36,19.36,0,0,0,0,19.14,16.48,16.48,0,0,0,7.13,6.18A25.25,25.25,0,0,0,145.72,484.17Z"/><path class="cls-1" d="M204.71,433.62h64v65.25H250.65V441.45l8.17,8.18h-44l7.57-6q.69,5.75,1,11c.17,3.51.26,6.82.26,10q0,12.52-2.26,20.4t-7.14,11.53q-4.87,3.64-12.61,3.65a31.51,31.51,0,0,1-6.66-.7,24,24,0,0,1-6-2.08v-15a19.64,19.64,0,0,0,7,1.48,8.43,8.43,0,0,0,8.14-5.13q2.47-5.13,2.47-16.79,0-5.65-.47-12.71T204.71,433.62Z"/><path class="cls-1" d="M319,500.27A45.73,45.73,0,0,1,298.71,496a31.65,31.65,0,0,1-18.4-29.75,32.73,32.73,0,0,1,4.83-17.84,32.4,32.4,0,0,1,13.57-11.91,50.58,50.58,0,0,1,40.68,0,32.93,32.93,0,0,1,0,59.5A45.66,45.66,0,0,1,319,500.27Zm0-16.1A25.48,25.48,0,0,0,330,482a16.26,16.26,0,0,0,7.09-6.18,19.7,19.7,0,0,0,0-19.14A16.26,16.26,0,0,0,330,450.5a28.56,28.56,0,0,0-21.84,0,16.53,16.53,0,0,0-7.13,6.18,19.43,19.43,0,0,0,0,19.14,16.53,16.53,0,0,0,7.13,6.18A25.3,25.3,0,0,0,319,484.17Z"/><path class="cls-1" d="M362.88,512V483H377l5.74.18H428l4.53-.18h19V512H434.56V498.87H379.75V512Zm13.57-78.39h63.77v60.21h-18.1V441.19l8.18,8.18H386l7.48-6a58,58,0,0,1,.83,7.74c.08,2.5.13,4.87.13,7.14a70,70,0,0,1-1.79,17.13c-1.19,4.65-2.95,8.15-5.3,10.53a11.91,11.91,0,0,1-8.83,3.57L371,483.21A26.12,26.12,0,0,0,376.1,472a78.94,78.94,0,0,0,1.65-17.54c0-3.18-.11-6.52-.34-10S376.85,437.4,376.45,433.62Z"/><path class="cls-1" d="M482.67,466.25l-4.26,26.19-7.31-8.18H521v14.61H460.4l5-32.62-5-32.63h60.21v14.62H471.1l7.31-8.18Zm-5-37.41a10.58,10.58,0,0,1-7-2.22,7.55,7.55,0,0,1-2.65-6.13,7.14,7.14,0,0,1,2.65-5.83,12.34,12.34,0,0,1,14,0,7.15,7.15,0,0,1,2.66,5.83,7.56,7.56,0,0,1-2.66,6.13A10.55,10.55,0,0,1,477.63,428.84Zm40.54,30.88v13H470.41v-13ZM504.6,428.84a10.58,10.58,0,0,1-7-2.22,7.58,7.58,0,0,1-2.65-6.13,7.17,7.17,0,0,1,2.65-5.83,12.34,12.34,0,0,1,14,0,7.15,7.15,0,0,1,2.66,5.83,7.56,7.56,0,0,1-2.66,6.13A10.55,10.55,0,0,1,504.6,428.84Z"/><path class="cls-1" d="M527.65,498.87l25.75-42.1,13.14,11L548.1,498.87Zm69.78-16.44-5-1.74,37-47.07H648.5l-53.34,65.25H581.94l-53.33-65.25h19l37.06,47.07-5,1.74V433.62h17.84Zm31.49,16.44-18.36-31.14,13.14-11,25.67,42.1Z"/><path class="cls-1" d="M657.8,498.87V433.62h18v59.16l-8.09-8.09h25.41a9.87,9.87,0,0,0,6.91-2.26,7.82,7.82,0,0,0,2.48-6.09,7.65,7.65,0,0,0-2.48-6.09,10.13,10.13,0,0,0-6.91-2.17h-27V453.81h28.1a32.82,32.82,0,0,1,14.22,2.83,21.25,21.25,0,0,1,9.14,7.87,21.8,21.8,0,0,1,3.17,11.83,22,22,0,0,1-3.17,11.88,20.86,20.86,0,0,1-9.14,7.87,33.28,33.28,0,0,1-14.22,2.78Z"/><path class="cls-1" d="M135,521a33.09,33.09,0,0,1,14.14,2.78,20.62,20.62,0,0,1,9.09,7.87,23.94,23.94,0,0,1,0,23.67,20.56,20.56,0,0,1-9.09,7.87A33.09,33.09,0,0,1,135,566H106.75V551.55h27.14a10,10,0,0,0,6.79-2.13,7.4,7.4,0,0,0,2.43-5.87,7.51,7.51,0,0,0-2.43-6,10,10,0,0,0-6.79-2.13H108.31l8.09-8.35v59.16h-18V521Z"/><path class="cls-1" d="M207.41,587.66a45.86,45.86,0,0,1-20.32-4.26,32.93,32.93,0,0,1,0-59.51,50.56,50.56,0,0,1,40.67,0,32.93,32.93,0,0,1,0,59.51A45.76,45.76,0,0,1,207.41,587.66Zm0-16.1a25.51,25.51,0,0,0,11-2.17,16.26,16.26,0,0,0,7.09-6.18,19.7,19.7,0,0,0,0-19.14,16.32,16.32,0,0,0-7.09-6.18,28.56,28.56,0,0,0-21.84,0,16.6,16.6,0,0,0-7.13,6.18,19.36,19.36,0,0,0,0,19.14,16.53,16.53,0,0,0,7.13,6.18A25.27,25.27,0,0,0,207.41,571.56Z"/><path class="cls-1" d="M330.34,559A29.71,29.71,0,0,1,324.42,574a32.75,32.75,0,0,1-13,10.05,45.13,45.13,0,0,1-18.48,3.57A44.09,44.09,0,0,1,273,583.4a32.18,32.18,0,0,1-13.26-11.92,35.86,35.86,0,0,1,0-35.67A32,32,0,0,1,273,523.89a44.09,44.09,0,0,1,19.93-4.27,45.13,45.13,0,0,1,18.48,3.57,32.75,32.75,0,0,1,13,10,29.71,29.71,0,0,1,5.92,15.09h-18.1a15.49,15.49,0,0,0-3.39-7.09,16.32,16.32,0,0,0-6.57-4.48,25.92,25.92,0,0,0-9.35-1.56,23.29,23.29,0,0,0-10.53,2.22,15.64,15.64,0,0,0-6.79,6.35,21.92,21.92,0,0,0,0,19.75,15.7,15.7,0,0,0,6.79,6.35,23.29,23.29,0,0,0,10.53,2.22,27.34,27.34,0,0,0,9.35-1.48,15.4,15.4,0,0,0,6.57-4.44,15.77,15.77,0,0,0,3.39-7.22Z"/><path class="cls-1" d="M334.6,521h67.86v16H334.6Zm24.88,7.91h18.1v57.34h-18.1Z"/><path class="cls-1" d="M445.7,587.66a45.86,45.86,0,0,1-20.32-4.26,32.93,32.93,0,0,1,0-59.51,50.58,50.58,0,0,1,40.68,0,32.93,32.93,0,0,1,0,59.51A45.83,45.83,0,0,1,445.7,587.66Zm0-16.1a25.51,25.51,0,0,0,11-2.17,16.26,16.26,0,0,0,7.09-6.18,19.7,19.7,0,0,0,0-19.14,16.32,16.32,0,0,0-7.09-6.18,28.56,28.56,0,0,0-21.84,0,16.6,16.6,0,0,0-7.13,6.18,19.43,19.43,0,0,0,0,19.14,16.53,16.53,0,0,0,7.13,6.18A25.3,25.3,0,0,0,445.7,571.56Z"/><path class="cls-1" d="M539.57,554.34l1.48-3.4a33.65,33.65,0,0,1,12.49,2.31,16,16,0,0,1,7.35,5.92,15.8,15.8,0,0,1,2.43,8.74,18.28,18.28,0,0,1-2.43,9.44,16.86,16.86,0,0,1-7.27,6.52,26.94,26.94,0,0,1-12,2.4h-48.2l5.05-33.5L493.37,521h46.46q9,0,14.1,4.22t5,11.7a17.08,17.08,0,0,1-1.91,7.83,16,16,0,0,1-6.14,6.31Q546.71,553.65,539.57,554.34Zm-28.36,27.75-7-8.44H536.7a8.94,8.94,0,0,0,6.09-1.91,6.72,6.72,0,0,0,2.18-5.31,6.89,6.89,0,0,0-2.35-5.44q-2.36-2-7-2h-26.8V546.59h24.36a7.67,7.67,0,0,0,5.26-1.87,6.42,6.42,0,0,0,2.14-5.09,5.6,5.6,0,0,0-1.83-4.3,7.4,7.4,0,0,0-5.22-1.7H504.34l6.87-8.44,4.44,27.58Z"/><path class="cls-1" d="M618.74,521l29.67,65.25H629.18l-24.88-57.6h5.22l-25,57.6H565.32L595,521ZM584,573.74V559.21h45v14.53Z"/><path class="cls-2" d="M360.41,178.44l-16.33.1-15.65.2c-3.06,21.28-4.75,27.08-15.82,40.65-18.62,22.81-58,27.12-82.3,7.7-8.47-6.77-4.67-10.05-18.55-9.9-9,.1-20.24-.6-28.94.34,5.25,16.46,23.46,33.28,36.46,41.18,53.14,32.24,120.09,3.74,137.07-51.93,1.56-5.1,4-10.95,4.11-15.55"/><path class="cls-3" d="M360.41,178.44l0,11.87-.15,19.92c31.66,2.47,57.21,20.7,60.57,54.34,1.72,17.13-3.87,33.89-12.6,44.13-6.48,7.62-9.45,5.17-9.27,18.52.12,9.25.43,19.82-.15,28.93,12.81-7.19,20.66-9.4,32.58-24.26,29.17-36.34,29.92-87.12.62-120.72l-15-14.29c-21.59-16.39-33.78-17.82-40.62-18.44"/><path class="cls-4" d="M344.08,178.54l16.33-.1.16-10.75-.06-21.39c-62.92-5.43-72.78-66.2-48.22-97.71a58.25,58.25,0,0,1,7-7.16c4.16-3.83,3-3.69,2.87-10.81-.13-9.73,0-19.49-.09-29.23C310.74,2.44,288.82,23.79,281,36.84c-22,36.83-17.43,83.47,12.86,113.63,17,17,24.3,20.23,44.83,26.61Z"/><path class="cls-5" d="M360.6,167.63l-.19,10.81,31.71.1c2.57-21,5.87-28.14,16.14-41,6.19-7.75,22.25-17.68,37.44-18.93,19.27-1.59,32.42,3,44.39,12,11.5,8.66,4.35,9.95,18.61,9.8,8.71-.09,20.53.69,28.8-.38-4.15-15.47-24.23-33.88-36.29-41.11-56.75-34.09-131.69-.43-140.61,68.73Z"/><path class="cls-5" d="M538.37,44.61l0-38.7c-3.14,1.56-6.93,5.51-11,8A62.3,62.3,0,0,1,513,20.22a62.9,62.9,0,0,1-36.78-1c-13.65-4.75-16.47-9.78-24.57-16.78-4.7-4.06-31-1.9-38.5-1.67,1.4,9.31,13.52,21.78,18.61,27,28.62,29.36,69.37,34.27,106.6,16.83Z"/><path class="cls-4" d="M182.69,126.25c17.21-4,39.27-29.46,47-48.41a96,96,0,0,0,6.75-40.79C236,27.62,231,7.05,225.86.79L187.49.66c.88,2.75,4.62,5.58,8.14,11.28,9.08,14.7,11.29,34.12,5.55,50.38-4.78,13.56-9.42,17-16.51,24.81-3.58,4-2.19,32.18-2,39.12Z"/><path class="cls-3" d="M495.94,355.58c8.89,3.9,37.37,1.3,37.37,1.3-2.2-4.82-7.51-8.1-12.24-19.86-10.38-25.85-1.76-52.33,17.3-68.42l.17-37.57c-19.83,7.1-38.42,28.12-46.75,48-8.84,21.17-10.42,55.18,2.1,73.8Z"/><path class="cls-2" d="M182.65,313l-.05,38.67c6.68-3.25,26.7-25.48,61.41-13.53,25.1,8.64,19.3,18.28,31.72,18.79l32.23-.15c-5-19.26-30.42-39.25-47.59-46.8-27.32-12-52.91-7.85-77.72,3Z"/><circle class="cls-1" cx="344.41" cy="89.84" r="29.24"/><circle class="cls-6" cx="449.57" cy="161.97" r="29.24"/><circle class="cls-7" cx="271.64" cy="195.83" r="29.24"/><circle class="cls-8" cx="376.26" cy="262.05" r="29.24"/></g></g></svg>