<svg xmlns="http://www.w3.org/2000/svg" viewBox="0 0 2274.14 815.63"><defs><style>.cls-1{font-size:9.81px;fill:#fff;font-family:Unbounded-Bold, Unbounded;font-weight:700;}.cls-2{letter-spacing:0.03em;}.cls-3{letter-spacing:0em;}.cls-4{letter-spacing:0em;}.cls-5{letter-spacing:0.03em;}.cls-6{letter-spacing:0em;}.cls-7{letter-spacing:0em;}.cls-8{letter-spacing:0.02em;}.cls-9{letter-spacing:-0.01em;}.cls-10{letter-spacing:-0.01em;}.cls-11{fill:#094790;}.cls-11,.cls-12,.cls-13,.cls-14{fill-rule:evenodd;}.cls-12{fill:#e2281b;}.cls-13{fill:#f3f9fe;}.cls-14{fill:#4b88c7;}.cls-15{font-size:12px;fill:#1d1d1b;font-family:MyriadPro-Regular, Myriad Pro;}</style></defs><g id="Слой_2" data-name="Слой 2"><g id="Слой_10" data-name="Слой 10"><text class="cls-1" transform="translate(0 55.89)"><tspan class="cls-2">М</tspan><tspan x="12.39" y="0">О</tspan><tspan class="cls-2" x="21.86" y="0">Л</tspan><tspan class="cls-3" x="31.94" y="0">О</tspan><tspan class="cls-2" x="41.42" y="0">ДЁЖ</tspan><tspan class="cls-4" x="74.18" y="0">Ь</tspan><tspan class="cls-5" x="82.14" y="0"> </tspan><tspan class="cls-2"><tspan x="11.1" y="9.86">РО</tspan><tspan class="cls-6" x="29.08" y="9.86">С</tspan><tspan class="cls-7" x="38.23" y="9.86">Т</tspan><tspan class="cls-8" x="46.22" y="9.86">О</tspan><tspan class="cls-9" x="55.87" y="9.86">В</tspan><tspan class="cls-10" x="64.43" y="9.86">А</tspan></tspan></text><path class="cls-11" d="M42.3,21.57V20.12H40.46l-1.77,0c-.34,2.4-.53,3.05-1.78,4.58a6.93,6.93,0,0,1-9.28.87c-1-.76-.53-1.13-2.1-1.12-1,0-2.28-.07-3.26,0,.59,1.86,2.65,3.75,4.11,4.64a10.51,10.51,0,0,0,15.46-5.85,11.41,11.41,0,0,1,.46-1.75Z"/><path class="cls-12" d="M42.3,20v3.69c3.57.28,6.45,2.33,6.83,6.13a6.88,6.88,0,0,1-1.42,5c-.73.86-1.07.59-1.05,2.09,0,1,.05,2.24,0,3.26a9.42,9.42,0,0,0,3.68-2.73,10.62,10.62,0,0,0,.07-13.62L48.69,22.2c-2.44-1.85-4-1.69-4.59-2.13l1.84,0H42.37l0-1.22h-.07Z"/><path class="cls-13" d="M40.46,20.13H42.3l0-1.21V16.5c-7.1-.61-8.21-7.47-5.44-11a6.79,6.79,0,0,1,.79-.81c.47-.43.34-.41.32-1.22,0-1.09,0-2.19,0-3.29-1.27.11-3.75,2.52-4.63,4A10.46,10.46,0,0,0,34.79,17a9.69,9.69,0,0,0,5.14,2.93Z"/><path class="cls-14" d="M42.32,18.9l0,1.22h3.57a7.34,7.34,0,0,1,1.82-4.62,6.89,6.89,0,0,1,4.23-2.14,6.75,6.75,0,0,1,5,1.36c1.3,1,.49,1.12,2.1,1.1a31.85,31.85,0,0,0,3.25,0C61.8,14,59.54,12,58.18,11.15A10.5,10.5,0,0,0,42.32,18.9Z"/><path class="cls-14" d="M62.37,5V.67c-.35.17-.78.62-1.24.9a7,7,0,0,1-1.62.71,7.14,7.14,0,0,1-4.15-.11A6.73,6.73,0,0,1,52.59.28C52.06-.18,49.1.06,48.25.09c.15,1,1.52,2.45,2.09,3a10.22,10.22,0,0,0,12,1.9Z"/><path class="cls-13" d="M22.25,14.24c1.95-.45,4.43-3.32,5.3-5.46a10.82,10.82,0,0,0,.76-4.6A10,10,0,0,0,27.12.09L22.8.07c.1.31.52.63.91,1.28A6.76,6.76,0,0,1,24.34,7a6.59,6.59,0,0,1-1.86,2.8c-.41.44-.25,3.62-.23,4.41Z"/><path class="cls-12" d="M57.5,40.22l4.3,0A13.25,13.25,0,0,1,60.42,38a6.69,6.69,0,0,1,1.95-7.72l0-4.24a10.22,10.22,0,0,0-5.28,5.42c-1,2.39-1.19,6.75.39,8.75Z"/><path class="cls-11" d="M22.25,35.3v4.36c.75-.36,3-2.87,6.92-1.52,2.83,1,2.18,2.06,3.58,2.12l3.63,0C35.81,38.07,33,35.81,31,35a10.44,10.44,0,0,0-8.77.34Z"/><path class="cls-13" d="M39.68,6.88c-4.61,1.18-2.58,7.59,1.55,6.5s2.66-7.58-1.55-6.5Z"/><path class="cls-11" d="M31.35,18.89c-4.44,1.38-2.23,7.69,1.94,6.38s2.28-7.68-1.94-6.38Z"/><path class="cls-14" d="M51.3,15.1a3.18,3.18,0,0,0-1.86,1.47A3.35,3.35,0,1,0,52,14.92l-.35.05c-.65.15,0,0-.33.13Z"/><path class="cls-12" d="M43.52,26.42c-4,.76-3,6.85,1.18,6.1a3.11,3.11,0,0,0,2.42-3.66,3.07,3.07,0,0,0-3.6-2.44Z"/></g><g id="Слой_8" data-name="Слой 8"><text class="cls-15" transform="translate(2171.31 805.58) rotate(180)">С<tspan x="6.98" y="0"> </tspan></text></g></g></svg>