<svg id="Слой_1" data-name="Слой 1" xmlns="http://www.w3.org/2000/svg" viewBox="0 0 988.45 866.18">
    <defs>
        <style>
            .cls-1{fill:#0c714f;}.cls-2{fill:#fff;}.cls-3{fill:#048881;}.cls-4{fill:#8fcdc5;}.cls-5{fill:#137a6d;}.cls-6{fill:#ea5b27;}.cls-7{isolation:isolate;}
        </style>
    </defs>
    <polygon class="cls-1"
             points="279.23 247.98 226.84 247.98 153 173.65 83.99 173.65 83.99 92.7 107.92 92.7 107.92 149.71 162.96 149.71 236.81 224.04 279.23 224.04 279.23 247.98"/>
    <polygon class="cls-1"
             points="279.23 337.34 143.08 337.34 86.9 272.46 105 256.8 154.02 313.4 279.23 313.4 279.23 337.34"/>
    <polygon class="cls-1"
             points="394.77 153.57 370.84 153.57 370.84 96.22 281.97 32.27 95.95 32.27 95.95 8.33 289.69 8.33 394.77 83.96 394.77 153.57"/>
    <rect class="cls-1" x="709.32" y="373.35" width="189.39" height="23.93"/>
    <g id="_2004020394688" data-name=" 2004020394688">
        <path class="cls-2" d="M1325.84,970.7a16.16,16.16,0,1,1-16.16-16.16h0a16.16,16.16,0,0,1,16.16,16.14Z"
              transform="translate(-1214.17 -706.07)"/>
        <path class="cls-1"
              d="M1309.68,991A20.29,20.29,0,1,1,1330,970.7,20.29,20.29,0,0,1,1309.68,991Zm0-32.32a12,12,0,1,0,12,12,12,12,0,0,0-12-12Z"
              transform="translate(-1214.17 -706.07)"/>
    </g>
    <g id="_2004020401744" data-name=" 2004020401744">
        <path class="cls-2" d="M2128,1091.39a16.16,16.16,0,1,1-16.16-16.16h0A16.17,16.17,0,0,1,2128,1091.39Z"
              transform="translate(-1214.17 -706.07)"/>
        <path class="cls-1"
              d="M2111.83,1111.67a20.28,20.28,0,1,1,20.28-20.28h0A20.29,20.29,0,0,1,2111.83,1111.67Zm0-32.32a12,12,0,1,0,12,12A12,12,0,0,0,2111.83,1079.35Z"
              transform="translate(-1214.17 -706.07)"/>
    </g>
    <rect class="cls-1" x="95.95" y="384.29" width="183.28" height="23.93"/>
    <g id="_2004020411632" data-name=" 2004020411632">
        <path class="cls-2" d="M1293.52,1102.33a16.16,16.16,0,1,0,16.16-16.16h0a16.14,16.14,0,0,0-16.16,16.13Z"
              transform="translate(-1214.17 -706.07)"/>
        <path class="cls-1"
              d="M1309.68,1122.61A20.3,20.3,0,1,1,1330,1102.3v0A20.3,20.3,0,0,1,1309.68,1122.61Zm0-32.33a12,12,0,1,0,12,12,12,12,0,0,0-12-12Z"
              transform="translate(-1214.17 -706.07)"/>
    </g>
    <g id="_2004020414320" data-name=" 2004020414320">
        <path class="cls-2" d="M1325.84,726.38a16.16,16.16,0,1,1-16.16-16.17,16.16,16.16,0,0,1,16.16,16.17Z"
              transform="translate(-1214.17 -706.07)"/>
        <path class="cls-1"
              d="M1309.68,746.66A20.3,20.3,0,1,1,1330,726.35v0A20.31,20.31,0,0,1,1309.68,746.66Zm0-32.32a12,12,0,1,0,12,12A12,12,0,0,0,1309.68,714.34Z"
              transform="translate(-1214.17 -706.07)"/>
    </g>
    <g id="_2004020426416" data-name=" 2004020426416">
        <path class="cls-2" d="M1325.84,796.16a16.16,16.16,0,1,1-16.21-16.11h0A16.17,16.17,0,0,1,1325.84,796.16Z"
              transform="translate(-1214.17 -706.07)"/>
        <path class="cls-1"
              d="M1309.68,816.45A20.3,20.3,0,1,1,1330,796.14v0A20.31,20.31,0,0,1,1309.68,816.45Zm0-32.32a12,12,0,1,0,12,12A12,12,0,0,0,1309.68,784.13Z"
              transform="translate(-1214.17 -706.07)"/>
    </g>
    <g id="_2004025928416" data-name=" 2004025928416">
        <path class="cls-2" d="M1690.64,1523.65a16.16,16.16,0,1,1-16.16-16.16h0a16.16,16.16,0,0,1,16.16,16.14Z"
              transform="translate(-1214.17 -706.07)"/>
        <path class="cls-1"
              d="M1674.45,1543.94a20.29,20.29,0,1,1,20.29-20.3h0A20.31,20.31,0,0,1,1674.45,1543.94Zm0-32.33a12,12,0,1,0,12,12A12,12,0,0,0,1674.45,1511.61Z"
              transform="translate(-1214.17 -706.07)"/>
    </g>
    <path class="cls-1"
          d="M1272.13,1561.59,1258,1542.33l39.8-29.33V1283.33a12,12,0,0,1,3.12-8.06l102.59-112.58a11.93,11.93,0,0,1,8.83-3.91h81.08v23.93h-75.82L1321.64,1288V1519a12,12,0,0,1-4.86,9.64Z"
          transform="translate(-1214.17 -706.07)"/>
    <polygon class="cls-1"
             points="32.12 649.87 32.12 697.22 83.74 697.22 83.74 649.87 107.5 649.87 107.5 769.53 83.74 769.53 83.74 716.03 32.12 716.03 32.12 769.53 8.36 769.53 8.36 649.87 32.12 649.87"/>
    <path class="cls-1"
          d="M1394.76,1340.6l46.86,135H1416l-9.74-31.12H1359.4l-9.74,31.12H1324l46.86-135Zm-29.53,85h35.21l-16.07-52h-3.07Z"
          transform="translate(-1214.17 -706.07)"/>
    <path class="cls-1"
          d="M1549.16,1430.82a51.13,51.13,0,0,1-15,34c-8,7.7-20.51,13.84-37.1,13.84-19.82,0-33.32-8.2-42-18.79-11.28-13.52-13.85-30.09-13.85-44.11s2.57-30.43,13.85-44.1c8.72-10.63,21.88-18.8,42-18.8,19.33,0,31,7.87,37.1,13.84a46.81,46.81,0,0,1,14.18,33.34h-24.61a30.69,30.69,0,0,0-7-20.52c-6-6.66-13.51-8-19.67-7.86-12.13.17-20,5.81-25,14.18-1.71,3.07-6.15,11.62-6.15,29.53,0,7.18.68,20,6.15,29.53,6,10.25,14.53,14.17,25,14.17,10.77,0,16.93-4.61,20-7.86a30,30,0,0,0,7.35-20.51Z"
          transform="translate(-1214.17 -706.07)"/>
    <path class="cls-1"
          d="M1732.54,1340.78l46.8,134.82h-25.65l-9.73-31.12h-46.84l-9.74,31.12h-25.65l46.8-134.82Zm-29.61,84.9h35.22l-16.08-52H1719Z"
          transform="translate(-1214.17 -706.07)"/>
    <polygon class="cls-1"
             points="639.99 649.87 639.99 668.33 612.25 668.33 612.25 845.01 588.3 845.01 588.3 668.33 560.9 668.33 560.9 649.87 639.99 649.87"/>
    <polygon class="cls-1"
             points="679.3 649.87 679.3 697.22 730.92 697.22 730.92 649.87 754.68 649.87 754.68 769.53 730.92 769.53 730.92 716.03 679.3 716.03 679.3 769.53 655.54 769.53 655.54 649.87 679.3 649.87"/>
    <path class="cls-1"
          d="M1991.08,1371c6.84-7.87,20-18.12,41.55-18.12s34.69,10.25,41.53,18.12c12.82,14.53,14.87,32.13,14.87,44.78s-2.05,30.26-14.87,44.79c-6.84,7.86-20,18.11-41.53,18.11s-34.71-10.25-41.55-18.11c-12.81-14.53-14.87-32.14-14.87-44.79S1978.27,1385.52,1991.08,1371Zm16.54,74.7h0a29.81,29.81,0,0,0,49.91,0c5.65-8.73,6.67-19.83,6.67-30.09s-1.18-21.2-6.67-30.08c-4.1-6.5-11.62-13.85-25-13.85s-20.86,7.35-25,13.85c-5.47,8.88-6.66,19.65-6.66,30.08s1.06,21.36,6.71,30.09Z"
          transform="translate(-1214.17 -706.07)"/>
    <path class="cls-1"
          d="M2096.39,1410.83c0-14.87,0-30.6,12.82-43.94,8.21-8.54,20.86-13.84,35.9-13.67s27.86,5.29,35.89,13.67c12.84,13.16,12.84,29.22,12.84,44.09v149.54h-24.29V1408.93c0-8.72.17-18.46-3.76-25.29-3.54-6.33-10.77-11.12-20.68-11.12-11.63,0-17.72,6.32-20.51,11.12-4.11,7.17-3.93,16.23-3.93,25.29v66.67h-24.28Z"
          transform="translate(-1214.17 -706.07)"/>
    <g id="_2004025901728" data-name=" 2004025901728">
        <path class="cls-2" d="M1250.58,1355.94a16.17,16.17,0,1,1-16.18-16.16h0A16.15,16.15,0,0,1,1250.58,1355.94Z"
              transform="translate(-1214.17 -706.07)"/>
        <path class="cls-1"
              d="M1234.42,1376.23a20.29,20.29,0,1,1,20.34-20.29,20.29,20.29,0,0,1-20.34,20.29Zm0-32.33a12,12,0,1,0,12.07,12,12,12,0,0,0-12.07-12Z"
              transform="translate(-1214.17 -706.07)"/>
    </g>
    <g id="_2004025912480" data-name=" 2004025912480">
        <path class="cls-2" d="M1282.9,1552a16.16,16.16,0,1,1-16.16-16.18A16.16,16.16,0,0,1,1282.9,1552Z"
              transform="translate(-1214.17 -706.07)"/>
        <path class="cls-1"
              d="M1266.74,1572.25a20.3,20.3,0,1,1,20.28-20.31v0A20.31,20.31,0,0,1,1266.74,1572.25Zm0-32.32a12,12,0,1,0,12,12,12,12,0,0,0-12-12Z"
              transform="translate(-1214.17 -706.07)"/>
    </g>
    <g id="_2007148898608" data-name=" 2007148898608">
        <path class="cls-2" d="M2198.5,1552a16.17,16.17,0,1,1-16.17-16.18h0A16.18,16.18,0,0,1,2198.5,1552Z"
              transform="translate(-1214.17 -706.07)"/>
        <path class="cls-1"
              d="M2182.34,1572.25a20.3,20.3,0,1,1,20.28-20.31v0A20.32,20.32,0,0,1,2182.34,1572.25Zm0-32.32a12,12,0,1,0,12,12,12,12,0,0,0-12-12Z"
              transform="translate(-1214.17 -706.07)"/>
    </g>
    <path class="cls-1"
          d="M1395,1350.28h-24.31v-65.75a12.18,12.18,0,0,1,3.55-8.6l37.73-37.71a12.13,12.13,0,0,1,8.58-3.55h72.85V1259h-67.79L1395,1289.58Z"
          transform="translate(-1214.17 -706.07)"/>
    <rect class="cls-3" x="495.28" y="586.66" width="22.17" height="68.63"/>
    <rect class="cls-1" x="494.2" y="586.66" width="24.32" height="68.63"/>
    <rect class="cls-1" x="560.86" y="586.66" width="22.17" height="68.63"/>
    <rect class="cls-1" x="201.84" y="769.47" width="25.6" height="47.18"/>
    <g id="_2007148914688" data-name=" 2007148914688">
        <path class="cls-2" d="M1444.94,1523.65a16.16,16.16,0,1,1-16.16-16.16h0a16.16,16.16,0,0,1,16.16,16.14Z"
              transform="translate(-1214.17 -706.07)"/>
        <path class="cls-1"
              d="M1428.83,1543.94a20.29,20.29,0,1,1,20.28-20.3h0A20.3,20.3,0,0,1,1428.83,1543.94Zm0-32.33a12,12,0,1,0,12,12A12,12,0,0,0,1428.83,1511.61Z"
              transform="translate(-1214.17 -706.07)"/>
    </g>
    <polygon class="cls-1"
             points="407.51 705.94 443.32 649.87 443.32 586.66 420.44 586.66 420.44 649.87 420.44 649.87 389.93 697.57 370.52 697.57 370.52 649.87 346.76 649.87 346.76 769.53 370.52 769.53 370.52 715.69 388.98 715.69 417.19 769.53 442.38 769.53 407.51 705.94"/>
    <polygon class="cls-1" points="473.19 803.7 473.19 769.53 447.59 769.53 447.59 803.7 447.59 803.7 473.19 803.7"/>
    <g id="_2005680116528" data-name=" 2005680116528">
        <path class="cls-2" d="M1814.67,1568.12a16.17,16.17,0,1,0-16.16-16.18v0A16.15,16.15,0,0,0,1814.67,1568.12Z"
              transform="translate(-1214.17 -706.07)"/>
        <path class="cls-1"
              d="M1814.67,1572.25a20.3,20.3,0,1,1,20.28-20.31v0A20.31,20.31,0,0,1,1814.67,1572.25Zm0-32.32a12,12,0,1,0,12,12,12,12,0,0,0-12-12Z"
              transform="translate(-1214.17 -706.07)"/>
    </g>
    <path class="cls-1" d="M2024.63,1561.76l-73.44-41.07a11.9,11.9,0,0,1-6.1-10.39v-35.68h23.81v28.74l67.33,37.64Z"
          transform="translate(-1214.17 -706.07)"/>
    <g id="_2005680109184" data-name=" 2005680109184">
        <path class="cls-2" d="M2028.07,1568.12a16.17,16.17,0,1,0-16.14-16.2v0A16.17,16.17,0,0,0,2028.07,1568.12Z"
              transform="translate(-1214.17 -706.07)"/>
        <path class="cls-1"
              d="M2028.07,1572.25a20.3,20.3,0,1,1,20.29-20.3v0A20.32,20.32,0,0,1,2028.07,1572.25Zm0-32.32a12,12,0,1,0,12,12,12,12,0,0,0-12-12Z"
              transform="translate(-1214.17 -706.07)"/>
    </g>
    <path class="cls-1"
          d="M1868.84,1292.71H1847l21.27,21.19a4.36,4.36,0,0,1,1.46,3v39h23.63v-39.38a2.94,2.94,0,0,0-1.19-2.36Z"
          transform="translate(-1214.17 -706.07)"/>
    <path class="cls-1" d="M1710.59,859.64h-23.95V798.4l-26.16-67.71,22.33-8.64,27,69.81a12,12,0,0,1,.8,4.32Z"
          transform="translate(-1214.17 -706.07)"/>
    <g id="_2005680115904" data-name=" 2005680115904">
        <path class="cls-2" d="M1687.8,726.38a16.16,16.16,0,1,1-16.16-16.17,16.14,16.14,0,0,1,16.16,16.17Z"
              transform="translate(-1214.17 -706.07)"/>
        <path class="cls-1"
              d="M1671.64,746.66a20.3,20.3,0,1,1,20.3-20.3v0A20.32,20.32,0,0,1,1671.64,746.66Zm0-32.32a12,12,0,1,0,12,12A12,12,0,0,0,1671.64,714.34Z"
              transform="translate(-1214.17 -706.07)"/>
    </g>
    <path class="cls-1"
          d="M1797.39,859.64h-23.94V796.16a12,12,0,0,1,12-12h187.19V726.38h24v69.78a12,12,0,0,1-12,12H1797.39Z"
          transform="translate(-1214.17 -706.07)"/>
    <g id="_2003665954704" data-name=" 2003665954704">
        <path class="cls-2" d="M2000.75,726.38a16.18,16.18,0,1,1-16.17-16.17,16.17,16.17,0,0,1,16.17,16.17Z"
              transform="translate(-1214.17 -706.07)"/>
        <path class="cls-1"
              d="M1984.58,746.66a20.3,20.3,0,1,1,20.27-20.32v0A20.32,20.32,0,0,1,1984.58,746.66Zm0-32.32a12,12,0,1,0,12,12.07v0A12.06,12.06,0,0,0,1984.58,714.34Z"
              transform="translate(-1214.17 -706.07)"/>
    </g>
    <path class="cls-1"
          d="M2026,948.46H1923.49V924.53h90.56V846.12a12,12,0,0,1,12-12h74.15V726.38h24V846.12a12,12,0,0,1-12,12H2038v78.41A12,12,0,0,1,2026,948.46Z"
          transform="translate(-1214.17 -706.07)"/>
    <g id="_2003665964640" data-name=" 2003665964640">
        <path class="cls-2" d="M2128,726.38a16.16,16.16,0,1,1-16.16-16.17A16.16,16.16,0,0,1,2128,726.38Z"
              transform="translate(-1214.17 -706.07)"/>
        <path class="cls-1"
              d="M2111.83,746.66a20.3,20.3,0,1,1,20.28-20.31v0A20.32,20.32,0,0,1,2111.83,746.66Zm0-32.32a12,12,0,1,0,12,12A12,12,0,0,0,2111.83,714.34Z"
              transform="translate(-1214.17 -706.07)"/>
    </g>
    <path class="cls-1" d="M2105.13,1221.83l-48.31-40.89H1923.49V1157h137.74a12,12,0,0,1,7.73,2.83l51.65,43.71Z"
          transform="translate(-1214.17 -706.07)"/>
    <path class="cls-1" d="M2011.86,1298.13l-43.48-39.35h-45.32v-24H1973a12,12,0,0,1,8,3.09l46.9,42.43Z"
          transform="translate(-1214.17 -706.07)"/>
    <g id="_2003665938528" data-name=" 2003665938528">
        <path class="cls-2" d="M2095.66,1212.73a16.17,16.17,0,1,1,16.17,16.19,16.17,16.17,0,0,1-16.17-16.19Z"
              transform="translate(-1214.17 -706.07)"/>
        <path class="cls-1"
              d="M2111.83,1233a20.29,20.29,0,1,1,20.28-20.28h0A20.3,20.3,0,0,1,2111.83,1233Zm0-32.32a12,12,0,1,0,12,12,12,12,0,0,0-12-12Z"
              transform="translate(-1214.17 -706.07)"/>
    </g>
    <path class="cls-1"
          d="M2061.23,1027.62H1923.49v-23.94h133.33l48.29-40.91,15.5,18.26-51.65,43.7A12,12,0,0,1,2061.23,1027.62Z"
          transform="translate(-1214.17 -706.07)"/>
    <g id="_2003665944768" data-name=" 2003665944768">
        <path class="cls-2" d="M2095.66,971.9a16.17,16.17,0,1,0,16.18-16.16h0A16.17,16.17,0,0,0,2095.66,971.9Z"
              transform="translate(-1214.17 -706.07)"/>
        <path class="cls-1"
              d="M2111.83,992.18a20.29,20.29,0,1,1,20.28-20.28h0A20.3,20.3,0,0,1,2111.83,992.18Zm0-32.32a12,12,0,1,0,12,12,12,12,0,0,0-12-12Z"
              transform="translate(-1214.17 -706.07)"/>
    </g>
    <g id="_2004956208704" data-name=" 2004956208704">
        <path class="cls-2" d="M2034.51,1289.25a16.16,16.16,0,1,1-16.16-16.16h0A16.16,16.16,0,0,1,2034.51,1289.25Z"
              transform="translate(-1214.17 -706.07)"/>
        <path class="cls-1"
              d="M2018.35,1309.54a20.3,20.3,0,1,1,20.29-20.29h0A20.31,20.31,0,0,1,2018.35,1309.54Zm0-32.32a12,12,0,1,0,12,12h0A12,12,0,0,0,2018.35,1277.22Z"
              transform="translate(-1214.17 -706.07)"/>
    </g>
    <path class="cls-1"
          d="M1896.43,1284.53H1521.37a20.85,20.85,0,0,1-20.91-20.81V888.61a20.86,20.86,0,0,1,20.86-20.86h375.11a20.86,20.86,0,0,1,20.86,20.86v375.07A20.85,20.85,0,0,1,1896.43,1284.53Z"
          transform="translate(-1214.17 -706.07)"/>
    <path class="cls-4"
          d="M1859.86,1257.4H1557.94a20.86,20.86,0,0,1-20.86-20.86V915.74a20.85,20.85,0,0,1,20.86-20.85h301.92a20.85,20.85,0,0,1,20.86,20.85v320.8A20.86,20.86,0,0,1,1859.86,1257.4Z"
          transform="translate(-1214.17 -706.07)"/>
    <path class="cls-5"
          d="M1859.86,1262.33H1557.94a25.81,25.81,0,0,1-25.79-25.79V915.74A25.81,25.81,0,0,1,1557.94,890h301.92a25.81,25.81,0,0,1,25.79,25.77v320.8A25.82,25.82,0,0,1,1859.86,1262.33ZM1557.94,899.82A15.94,15.94,0,0,0,1542,915.74v320.8a15.94,15.94,0,0,0,15.93,15.92h301.92a15.92,15.92,0,0,0,15.92-15.92V915.74a15.94,15.94,0,0,0-15.92-15.92Z"
          transform="translate(-1214.17 -706.07)"/>
    <path class="cls-2" d="M1816.51,881.41a6.56,6.56,0,1,1-6.56-6.55h0A6.56,6.56,0,0,1,1816.51,881.41Z"
          transform="translate(-1214.17 -706.07)"/>
    <path class="cls-2" d="M1795.41,881.41a6.57,6.57,0,1,1-6.58-6.55h0A6.56,6.56,0,0,1,1795.41,881.41Z"
          transform="translate(-1214.17 -706.07)"/>
    <path class="cls-2" d="M1524.8,963.91a6.56,6.56,0,1,1-6.55-6.55h0a6.53,6.53,0,0,1,6.55,6.53Z"
          transform="translate(-1214.17 -706.07)"/>
    <path class="cls-2" d="M1524.8,985.13a6.56,6.56,0,1,1-6.55-6.56h0A6.56,6.56,0,0,1,1524.8,985.13Z"
          transform="translate(-1214.17 -706.07)"/>
    <path class="cls-2" d="M1524.8,1006.35a6.56,6.56,0,1,1-6.55-6.55h0A6.55,6.55,0,0,1,1524.8,1006.35Z"
          transform="translate(-1214.17 -706.07)"/>
    <path class="cls-2" d="M1524.8,1027.57a6.56,6.56,0,1,1-6.55-6.56h0A6.56,6.56,0,0,1,1524.8,1027.57Z"
          transform="translate(-1214.17 -706.07)"/>
    <path class="cls-2" d="M1524.8,1048.79a6.56,6.56,0,1,1-6.55-6.55h0A6.55,6.55,0,0,1,1524.8,1048.79Z"
          transform="translate(-1214.17 -706.07)"/>
    <path class="cls-2" d="M1524.8,1070a6.56,6.56,0,1,1-6.55-6.56h0A6.56,6.56,0,0,1,1524.8,1070Z"
          transform="translate(-1214.17 -706.07)"/>
    <path class="cls-6"
          d="M1893.88,839.82h-370a23.41,23.41,0,0,1-23.47-23.37V788.39A23.42,23.42,0,0,1,1523.88,765h370a23.42,23.42,0,0,1,23.41,23.42v28A23.41,23.41,0,0,1,1893.88,839.82Z"
          transform="translate(-1214.17 -706.07)"/>
    <path class="cls-2"
          d="M1893.88,843.31h-370a26.93,26.93,0,0,1-26.9-26.9v-28a26.93,26.93,0,0,1,26.9-26.9h370a26.93,26.93,0,0,1,26.89,26.9v28A26.93,26.93,0,0,1,1893.88,843.31Zm-370-74.86A20,20,0,0,0,1504,788.39v28a20,20,0,0,0,19.94,19.94h369.94a20,20,0,0,0,19.93-19.94v-28a20,20,0,0,0-19.93-19.94Z"
          transform="translate(-1214.17 -706.07)"/>
    <path class="cls-2" d="M1917.29,805.87h-50.91a3.48,3.48,0,0,1,0-7h50.91a3.48,3.48,0,0,1,0,7Z"
          transform="translate(-1214.17 -706.07)"/>
    <path class="cls-2" d="M1866.81,810.91a8.52,8.52,0,1,1,8.51-8.52h0a8.5,8.5,0,0,1-8.5,8.51Z"
          transform="translate(-1214.17 -706.07)"/>
    <path class="cls-2" d="M1551.42,805.87h-51a3.48,3.48,0,0,1,0-7h50.91a3.48,3.48,0,0,1,0,7Z"
          transform="translate(-1214.17 -706.07)"/>
    <path class="cls-2" d="M1551,793.88a8.52,8.52,0,1,1-8.51,8.52h0A8.52,8.52,0,0,1,1551,793.88Z"
          transform="translate(-1214.17 -706.07)"/>
    <g class="cls-7">
        <path class="cls-2"
              d="M1699.84,1044.77,1698,1074H1569.6v-27.4l28.68-14.22q6.32-3.06,23.56-13.14t22.5-15.49q5.25-5.4,5.25-11.34a10.85,10.85,0,0,0-4.58-9.12q-4.58-3.43-12-3.44-18.59,0-20.81,20.59l-42.59-5.85q4.68-21,23.27-31.28t43.89-10.25q27.4,0,44.75,10.38t17.34,27.66q0,11.52-9.44,21.9t-55.25,31.77Z"
              transform="translate(-1214.17 -706.07)"/>
    </g>
    <g class="cls-7">
        <path class="cls-2"
              d="M1772.83,1075.83q-30.49,0-48.27-17t-17.78-44.63q0-28.37,18.21-44.77t48.7-16.4q32,0,49,17.49t17,44.72q0,27.75-18.34,44.16T1772.83,1075.83Zm.49-25.3q10.62,0,14.2-9.56t3.58-26.13q0-22.79-4.76-29.76a14.83,14.83,0,0,0-12.9-7q-9.87,0-13.64,9.21t-3.76,25.35q0,21.9,3.76,29.88T1773.32,1050.53Z"
              transform="translate(-1214.17 -706.07)"/>
    </g>
    <g class="cls-7">
        <path class="cls-2"
              d="M1699.84,1175.11l-1.85,29.23H1569.6v-27.4l28.68-14.22q6.32-3.06,23.56-13.14t22.5-15.49q5.25-5.4,5.25-11.34a10.85,10.85,0,0,0-4.58-9.12q-4.58-3.44-12-3.44-18.59,0-20.81,20.59l-42.59-5.85q4.68-21,23.27-31.28t43.89-10.25q27.4,0,44.75,10.38t17.34,27.66q0,11.52-9.44,21.9t-55.25,31.77Z"
              transform="translate(-1214.17 -706.07)"/>
    </g>
    <path class="cls-2"
          d="M1839.74,1178.45h-21v25.89h-41.19v-25.89h-61.13v-25.62l56.31-68.08h46v68.08h21Zm-62.23-25.62v-35.18l-28.31,35.18Z"
          transform="translate(-1214.17 -706.07)"/>
</svg>