<svg xmlns="http://www.w3.org/2000/svg" viewBox="0 0 1674.42 357.73"><defs><style>.cls-1,.cls-4{fill:#f2f9ff;}.cls-2,.cls-7{fill:#024692;}.cls-2,.cls-3,.cls-4,.cls-5{fill-rule:evenodd;}.cls-3,.cls-8{fill:#e22616;}.cls-5,.cls-6{fill:#2d91f5;}</style></defs><g id="Слой_2" data-name="Слой 2"><g id="PRINT"><path class="cls-1" d="M610.07,55.72v111H580.91V66.68l6.51.74-42.93,99.34H513.4l-43.09-99L477,67v99.78H447.81v-111h47.37L535,151.07H523.17L562.7,55.72Z"/><path class="cls-1" d="M695.79,169.13q-19.68,0-34.57-7.25a55.22,55.22,0,0,1-23.09-20.29q-8.22-13-8.22-30.35t8.22-30.35a55.27,55.27,0,0,1,23.09-20.28q14.88-7.26,34.57-7.25,19.85,0,34.65,7.25a55.85,55.85,0,0,1,23.1,20.28q8.28,13,8.29,30.35t-8.29,30.35a55.8,55.8,0,0,1-23.1,20.29Q715.64,169.14,695.79,169.13Zm0-27.39q10.82,0,18.66-3.7a27.74,27.74,0,0,0,12.07-10.51,30.34,30.34,0,0,0,4.22-16.29A30.33,30.33,0,0,0,726.52,95a27.67,27.67,0,0,0-12.07-10.51,48.38,48.38,0,0,0-37.16,0A28.09,28.09,0,0,0,665.15,95a29.84,29.84,0,0,0-4.3,16.28,29.85,29.85,0,0,0,4.3,16.29A28.15,28.15,0,0,0,677.29,138,43,43,0,0,0,695.79,141.74Z"/><path class="cls-1" d="M796.18,55.72h109v111H874.35V69.05L888.26,83H813.35l12.88-10.22q1.18,9.77,1.63,18.73t.44,17q0,21.32-3.85,34.72t-12.14,19.62Q804,169,790.85,169a54.13,54.13,0,0,1-11.33-1.18,40.36,40.36,0,0,1-10.14-3.55V138.78a33.46,33.46,0,0,0,12,2.52q9.63,0,13.84-8.74T799.43,104q0-9.63-.81-21.62T796.18,55.72Z"/><path class="cls-1" d="M990.72,169.13q-19.69,0-34.57-7.25a55.19,55.19,0,0,1-23.1-20.29q-8.22-13-8.22-30.35t8.22-30.35a55.23,55.23,0,0,1,23.1-20.28q14.88-7.26,34.57-7.25t34.64,7.25a55.85,55.85,0,0,1,23.1,20.28q8.28,13,8.29,30.35t-8.29,30.35a55.8,55.8,0,0,1-23.1,20.29Q1010.56,169.14,990.72,169.13Zm0-27.39q10.8,0,18.65-3.7a27.74,27.74,0,0,0,12.07-10.51,30.34,30.34,0,0,0,4.22-16.29A30.33,30.33,0,0,0,1021.44,95a27.67,27.67,0,0,0-12.07-10.51,48.38,48.38,0,0,0-37.16,0A28.09,28.09,0,0,0,960.07,95a29.92,29.92,0,0,0-4.29,16.28,29.93,29.93,0,0,0,4.29,16.29A28.15,28.15,0,0,0,972.21,138,43,43,0,0,0,990.72,141.74Z"/><path class="cls-1" d="M1065.34,189.12V139.67h24l9.77.3h77l7.7-.3h32.27v49.45h-28.72V166.76h-93.27v22.36Zm23.09-133.4H1197V158.18h-30.79V68.6l13.92,13.92h-75.36l12.73-10.21a96.82,96.82,0,0,1,1.41,13.17q.21,6.38.22,12.14,0,17.32-3,29.17t-9,17.91a20.23,20.23,0,0,1-15,6.07l-12.89-10.66q5.93-6.95,8.74-19t2.81-29.83q0-8.15-.59-17T1088.43,55.72Z"/><path class="cls-1" d="M1269.2,111.24,1262,155.81l-12.44-13.92h85v24.87H1231.3l8.44-55.52-8.44-55.52h102.45V80.6h-84.24L1262,66.68Zm-8.58-63.66q-7.41,0-11.92-3.77t-4.52-10.44a12.17,12.17,0,0,1,4.52-9.92q4.52-3.7,11.92-3.7t11.91,3.7a12.17,12.17,0,0,1,4.52,9.92q0,6.66-4.52,10.44T1260.62,47.58Zm69,52.56v22.21h-81.28V100.14Zm-23.1-52.56q-7.4,0-11.92-3.77t-4.51-10.44a12.16,12.16,0,0,1,4.51-9.92q4.52-3.7,11.92-3.7t11.92,3.7a12.17,12.17,0,0,1,4.52,9.92q0,6.66-4.52,10.44T1306.51,47.58Z"/><path class="cls-1" d="M1345.75,166.76l43.82-71.65,22.36,18.65-31.39,53Zm118.73-28-8.43-3L1519,55.72h32.42l-90.76,111h-22.5l-90.76-111h32.28l63.07,80.1-8.59,3V55.72h30.35Zm53.6,28-31.24-53,22.36-18.65,43.67,71.65Z"/><path class="cls-1" d="M1567.23,166.76v-111h30.65V156.4l-13.77-13.77h43.23q7.54,0,11.77-3.85a13.34,13.34,0,0,0,4.22-10.36q0-6.66-4.22-10.37t-11.77-3.7h-45.9V90.07h47.83q14.06,0,24.2,4.81a36.21,36.21,0,0,1,15.55,13.4,37.05,37.05,0,0,1,5.4,20.14,37.42,37.42,0,0,1-5.4,20.21,35.56,35.56,0,0,1-15.55,13.4q-10.14,4.74-24.2,4.73Z"/><path class="cls-1" d="M510.14,204.44q13.9,0,24.06,4.74a35.06,35.06,0,0,1,15.47,13.4,40.7,40.7,0,0,1,0,40.27,35.06,35.06,0,0,1-15.47,13.4Q524,281,510.14,281H462V256.41h46.19q7.41,0,11.55-3.63c2.76-2.41,4.15-5.75,4.15-10s-1.39-7.72-4.15-10.14S513.15,229,508.21,229H464.69l13.76-14.21V315.48H447.81v-111Z"/><path class="cls-1" d="M633.32,317.85q-19.7,0-34.57-7.25a55.19,55.19,0,0,1-23.1-20.29q-8.22-13-8.22-30.35t8.22-30.35a55.23,55.23,0,0,1,23.1-20.28q14.88-7.26,34.57-7.26T668,209.33a55.85,55.85,0,0,1,23.1,20.28q8.28,13,8.29,30.35t-8.29,30.35A55.8,55.8,0,0,1,668,310.6Q653.16,317.85,633.32,317.85Zm0-27.39q10.8,0,18.65-3.7A27.74,27.74,0,0,0,664,276.25a33.53,33.53,0,0,0,0-32.57A27.67,27.67,0,0,0,652,233.17a48.38,48.38,0,0,0-37.16,0,28.09,28.09,0,0,0-12.14,10.51,33.05,33.05,0,0,0,0,32.57,28.15,28.15,0,0,0,12.14,10.51A43,43,0,0,0,633.32,290.46Z"/><path class="cls-1" d="M842.52,269a50.66,50.66,0,0,1-10.07,25.69,55.6,55.6,0,0,1-22.14,17.1q-13.69,6.08-31.46,6.07-19.4,0-33.9-7.25a54.6,54.6,0,0,1-22.58-20.29q-8.07-13-8.07-30.35t8.07-30.35A54.65,54.65,0,0,1,745,209.33q14.5-7.26,33.9-7.26,17.77,0,31.46,6.07a55.77,55.77,0,0,1,22.14,17.1,50.74,50.74,0,0,1,10.07,25.69h-30.8A26.22,26.22,0,0,0,806,238.87a27.74,27.74,0,0,0-11.18-7.63,43.87,43.87,0,0,0-15.92-2.66,39.56,39.56,0,0,0-17.91,3.77,26.58,26.58,0,0,0-11.55,10.81,37.3,37.3,0,0,0,0,33.61,26.58,26.58,0,0,0,11.55,10.81,39.69,39.69,0,0,0,17.91,3.77,46.22,46.22,0,0,0,15.92-2.52A26.1,26.1,0,0,0,806,281.28,26.83,26.83,0,0,0,811.72,269Z"/><path class="cls-1" d="M849.77,204.44H965.25v27.25H849.77Zm42.34,13.48h30.8v97.56h-30.8Z"/><path class="cls-1" d="M1038.83,317.85q-19.69,0-34.57-7.25a55.1,55.1,0,0,1-23.09-20.29Q973,277.29,973,260t8.22-30.35a55.15,55.15,0,0,1,23.09-20.28q14.88-7.26,34.57-7.26,19.85,0,34.65,7.26a55.82,55.82,0,0,1,23.09,20.28q8.29,13,8.29,30.35t-8.29,30.35a55.77,55.77,0,0,1-23.09,20.29Q1058.67,317.85,1038.83,317.85Zm0-27.39a43.38,43.38,0,0,0,18.66-3.7,27.65,27.65,0,0,0,12.06-10.51,33.53,33.53,0,0,0,0-32.57,27.59,27.59,0,0,0-12.06-10.51,48.38,48.38,0,0,0-37.16,0,28,28,0,0,0-12.14,10.51,33,33,0,0,0,0,32.57,28.1,28.1,0,0,0,12.14,10.51A43,43,0,0,0,1038.83,290.46Z"/><path class="cls-1" d="M1198.58,261.15l2.52-5.78q12.89.3,21.24,3.93t12.52,10.06a26.94,26.94,0,0,1,4.14,14.88,31.07,31.07,0,0,1-4.14,16.07,28.63,28.63,0,0,1-12.37,11.1q-8.22,4.08-20.5,4.07h-82l8.58-57-8.58-54H1199q15.39,0,24,7.18t8.59,19.92a28.87,28.87,0,0,1-3.26,13.32,27.07,27.07,0,0,1-10.44,10.74Q1210.71,260,1198.58,261.15Zm-48.26,47.23L1138.47,294h55.23q6.66,0,10.36-3.26t3.7-9a11.66,11.66,0,0,0-4-9.26c-2.66-2.31-6.61-3.48-11.84-3.48h-45.6V248h41.45a13.1,13.1,0,0,0,9-3.18,10.93,10.93,0,0,0,3.63-8.66,9.57,9.57,0,0,0-3.11-7.33q-3.11-2.9-8.88-2.89h-49.75l11.7-14.36,7.55,46.93Z"/><path class="cls-1" d="M1333.31,204.44l50.49,111h-32.72l-42.35-98h8.89l-42.49,98h-32.72l50.48-111Zm-59.07,89.72V269.44h76.54v24.72Z"/><path class="cls-2" d="M178.16,178.44l-16.33.1-15.65.2c-3.06,21.28-4.75,27.08-15.82,40.65-18.62,22.81-58,27.12-82.3,7.7-8.47-6.77-4.67-10.05-18.55-9.9-9,.1-20.24-.6-28.94.34C5.82,234,24,250.81,37,258.71,90.17,291,157.12,262.45,174.1,206.78c1.56-5.1,4-10.95,4.11-15.55"/><path class="cls-3" d="M178.16,178.44l.05,11.87-.15,19.92c31.66,2.47,57.21,20.7,60.57,54.34,1.72,17.13-3.87,33.89-12.6,44.13-6.48,7.62-9.45,5.17-9.27,18.52.12,9.25.43,19.82-.15,28.93,12.81-7.19,20.66-9.4,32.58-24.26,29.17-36.34,29.92-87.12.62-120.72l-15-14.29c-21.59-16.39-33.78-17.82-40.62-18.44"/><path class="cls-4" d="M161.83,178.54l16.33-.1.16-10.75-.06-21.39c-62.92-5.43-72.78-66.2-48.22-97.71a58.25,58.25,0,0,1,7-7.16c4.16-3.83,3-3.69,2.87-10.81-.13-9.73.05-19.49-.09-29.23-11.33,1.05-33.25,22.4-41.06,35.45-22,36.83-17.43,83.47,12.86,113.63,17,17,24.3,20.23,44.83,26.61Z"/><path class="cls-5" d="M178.35,167.63l-.19,10.81,31.71.1c2.57-21,5.87-28.14,16.14-41,6.19-7.75,22.25-17.68,37.44-18.93,19.27-1.59,32.42,3,44.39,12,11.5,8.66,4.35,9.95,18.61,9.8,8.71-.09,20.53.69,28.8-.38C351.1,124.54,331,106.13,319,98.9c-56.75-34.09-131.69-.43-140.61,68.73Z"/><path class="cls-5" d="M356.12,44.61l0-38.7c-3.14,1.56-6.93,5.51-11,8a62.3,62.3,0,0,1-14.38,6.31,62.9,62.9,0,0,1-36.78-1c-13.65-4.75-16.47-9.78-24.57-16.78-4.7-4.06-31-1.9-38.5-1.67,1.4,9.31,13.51,21.78,18.61,27,28.62,29.36,69.37,34.27,106.6,16.83Z"/><path class="cls-4" d="M.44,126.25c17.21-4,39.27-29.46,47-48.41a96,96,0,0,0,6.75-40.79c-.45-9.43-5.41-30-10.54-36.26L5.24.66c.88,2.75,4.62,5.58,8.14,11.28,9.08,14.7,11.29,34.12,5.55,50.38-4.78,13.56-9.43,17-16.51,24.81-3.58,4-2.19,32.18-2,39.12Z"/><path class="cls-3" d="M313.69,355.58c8.89,3.9,37.37,1.3,37.37,1.3-2.2-4.82-7.51-8.1-12.24-19.86-10.38-25.85-1.76-52.33,17.3-68.42l.17-37.57c-19.83,7.1-38.42,28.12-46.75,48-8.84,21.17-10.42,55.18,2.1,73.8Z"/><path class="cls-2" d="M.4,313,.35,351.71c6.68-3.25,26.7-25.48,61.41-13.53,25.1,8.64,19.3,18.28,31.72,18.79l32.23-.15c-5-19.26-30.42-39.25-47.59-46.8C50.8,298,25.21,302.17.4,313Z"/><circle class="cls-1" cx="162.16" cy="89.84" r="29.24"/><circle class="cls-6" cx="267.32" cy="161.97" r="29.24"/><circle class="cls-7" cx="89.39" cy="195.83" r="29.24"/><circle class="cls-8" cx="194.01" cy="262.05" r="29.24"/></g></g></svg>